<?xml version="1.0" encoding="UTF-8"?>
<svg xmlns="http://www.w3.org/2000/svg" xmlns:xlink="http://www.w3.org/1999/xlink" width="662.17pt" height="476.63pt" viewBox="0 0 662.17 476.63" version="1.1">
<defs>
<clipPath id="clip1">
  <path d="M 204 379 L 301 379 L 301 476.628906 L 204 476.628906 Z M 204 379 "/>
</clipPath>
<clipPath id="clip2">
  <path d="M 585 382 L 662.171875 382 L 662.171875 475 L 585 475 Z M 585 382 "/>
</clipPath>
</defs>
<g id="surface1">
<path style=" stroke:none;fill-rule:nonzero;fill:rgb(9.799194%,62.399292%,77.999878%);fill-opacity:1;" d="M 48.28125 409.605469 L 38.90625 442.734375 L 58.039063 442.734375 Z M 0 474.195313 L 33.128906 381.742188 L 63.945313 381.742188 L 97.074219 474.195313 L 66.898438 474.195313 L 63.300781 461.996094 L 33.128906 461.996094 L 29.660156 474.195313 "/>
<path style=" stroke:none;fill-rule:nonzero;fill:rgb(9.799194%,62.399292%,77.999878%);fill-opacity:1;" d="M 104.132813 474.195313 L 104.132813 381.742188 L 134.4375 381.742188 L 134.4375 412.816406 L 163.070313 412.816406 L 163.070313 381.742188 L 193.375 381.742188 L 193.375 474.195313 L 163.070313 474.195313 L 163.070313 438.242188 L 134.4375 438.242188 L 134.4375 474.195313 "/>
<g clip-path="url(#clip1)" clip-rule="nonzero">
<path style=" stroke:none;fill-rule:nonzero;fill:rgb(9.799194%,62.399292%,77.999878%);fill-opacity:1;" d="M 234.335938 427.519531 C 234.335938 434.695313 235.703125 440.90625 238.441406 446.15625 C 241.183594 451.410156 245.84375 454.035156 252.4375 454.035156 C 258.601563 454.035156 263.179688 451.644531 266.175781 446.863281 C 269.171875 442.082031 270.671875 435.632813 270.671875 427.519531 C 270.671875 420.519531 269.128906 414.519531 266.050781 409.523438 C 262.96875 404.53125 258.34375 402.03125 252.183594 402.03125 C 245.933594 402.03125 241.394531 404.574219 238.570313 409.652344 C 235.746094 414.734375 234.335938 420.691406 234.335938 427.519531 M 300.976563 427.519531 C 300.976563 442.738281 296.414063 454.726563 287.300781 463.492188 C 278.183594 472.253906 266.5625 476.632813 252.4375 476.632813 C 237.714844 476.632813 225.964844 472.292969 217.191406 463.617188 C 208.414063 454.941406 204.03125 442.824219 204.03125 427.265625 C 204.03125 412.816406 208.480469 401.234375 217.382813 392.511719 C 226.285156 383.792969 237.972656 379.433594 252.4375 379.433594 C 268.019531 379.433594 280 384.132813 288.390625 393.539063 C 296.78125 402.941406 300.976563 414.269531 300.976563 427.519531 "/>
</g>
<path style=" stroke:none;fill-rule:nonzero;fill:rgb(9.799194%,62.399292%,77.999878%);fill-opacity:1;" d="M 340.90625 421.675781 L 352.847656 421.675781 C 357.640625 421.675781 361.238281 421.015625 363.632813 419.6875 C 366.03125 418.359375 367.230469 416.113281 367.230469 412.945313 C 367.230469 409.863281 366.09375 407.488281 363.824219 405.820313 C 361.558594 404.148438 358.625 403.316406 355.03125 403.316406 L 340.90625 403.316406 Z M 340.90625 441.964844 L 340.90625 474.195313 L 310.605469 474.195313 L 310.605469 381.742188 L 354.261719 381.742188 C 369.238281 381.742188 379.8125 383.820313 385.976563 387.972656 C 392.140625 392.125 395.222656 398.820313 395.222656 408.066406 C 395.222656 413.632813 393.914063 418.425781 391.304688 422.449219 C 388.691406 426.472656 384.820313 429.210938 379.683594 430.664063 C 385.503906 432.804688 389.570313 435.308594 391.882813 438.175781 C 394.195313 441.046875 395.347656 446.714844 395.347656 455.191406 L 395.347656 465.589844 C 395.519531 469.441406 396.589844 471.367188 398.558594 471.367188 L 398.558594 474.195313 L 367.871094 474.195313 C 366.84375 471.453125 366.328125 466.0625 366.328125 458.015625 C 366.328125 451.59375 365.367188 447.316406 363.441406 445.175781 C 361.515625 443.035156 357.085938 441.964844 350.152344 441.964844 "/>
<path style=" stroke:none;fill-rule:nonzero;fill:rgb(9.799194%,62.399292%,77.999878%);fill-opacity:1;" d="M 449.148438 409.605469 L 439.777344 442.734375 L 458.90625 442.734375 Z M 400.871094 474.195313 L 434 381.742188 L 464.816406 381.742188 L 497.941406 474.195313 L 467.769531 474.195313 L 464.171875 461.996094 L 434 461.996094 L 430.53125 474.195313 "/>
<path style=" stroke:none;fill-rule:nonzero;fill:rgb(9.799194%,62.399292%,77.999878%);fill-opacity:1;" d="M 571.773438 474.195313 L 545.066406 474.195313 L 545.066406 421.421875 L 524.136719 421.421875 L 524.136719 403.1875 C 531.667969 403.1875 537.746094 401.601563 542.371094 398.433594 C 546.992188 395.269531 550.03125 389.917969 551.488281 382.386719 L 571.773438 382.386719 "/>
<g clip-path="url(#clip2)" clip-rule="nonzero">
<path style=" stroke:none;fill-rule:nonzero;fill:rgb(9.799194%,62.399292%,77.999878%);fill-opacity:1;" d="M 585.769531 474.195313 C 585.769531 469.058594 586.644531 464.457031 588.402344 460.390625 C 590.152344 456.324219 592.660156 452.582031 595.914063 449.15625 C 599.164063 445.730469 606.570313 440.058594 618.128906 432.140625 C 629.683594 424.222656 635.460938 417.355469 635.460938 411.535156 C 635.460938 408.792969 634.371094 406.589844 632.1875 404.921875 C 630.003906 403.25 627.453125 402.417969 624.546875 402.417969 C 619.839844 402.417969 616.476563 404.042969 614.464844 407.296875 C 612.453125 410.550781 611.449219 414.703125 611.449219 419.75 L 587.4375 419.75 C 587.4375 406.910156 590.777344 397.472656 597.453125 391.4375 C 604.128906 385.402344 613.589844 382.386719 625.828125 382.386719 C 636.1875 382.386719 644.835938 384.785156 651.769531 389.578125 C 658.703125 394.371094 662.167969 401.730469 662.167969 411.660156 C 662.167969 419.964844 659.8125 426 655.105469 429.765625 C 650.398438 433.535156 645.796875 436.808594 641.300781 439.589844 C 636.808594 442.371094 632.484375 444.9375 628.335938 447.292969 C 624.183594 449.648438 621.378906 451.339844 619.921875 452.367188 L 661.914063 452.367188 L 661.914063 474.195313 "/>
</g>
<path style=" stroke:none;fill-rule:nonzero;fill:rgb(37.298584%,27.099609%,53.69873%);fill-opacity:1;" d="M 385.273438 207.824219 L 375.417969 207.824219 L 375.417969 188.347656 L 367.695313 188.347656 L 367.695313 181.621094 C 370.476563 181.621094 372.71875 181.035156 374.429688 179.867188 C 376.132813 178.699219 377.253906 176.726563 377.789063 173.945313 L 385.273438 173.945313 "/>
<path style=" stroke:none;fill-rule:nonzero;fill:rgb(37.298584%,27.099609%,53.69873%);fill-opacity:1;" d="M 388.585938 207.824219 C 388.585938 205.929688 388.910156 204.230469 389.554688 202.730469 C 390.203125 201.230469 391.128906 199.847656 392.328125 198.585938 C 393.527344 197.320313 396.261719 195.226563 400.523438 192.304688 C 404.792969 189.386719 406.921875 186.851563 406.921875 184.699219 C 406.921875 183.691406 406.519531 182.875 405.714844 182.261719 C 404.90625 181.644531 403.96875 181.339844 402.894531 181.339844 C 401.160156 181.339844 399.917969 181.9375 399.171875 183.136719 C 398.433594 184.339844 398.0625 185.867188 398.0625 187.730469 L 389.199219 187.730469 C 389.199219 182.996094 390.433594 179.511719 392.898438 177.285156 C 395.363281 175.058594 398.851563 173.945313 403.371094 173.945313 C 407.191406 173.945313 410.382813 174.828125 412.941406 176.597656 C 415.5 178.367188 416.777344 181.085938 416.777344 184.746094 C 416.777344 187.8125 415.910156 190.039063 414.171875 191.429688 C 412.433594 192.820313 410.738281 194.027344 409.082031 195.054688 C 407.417969 196.082031 405.820313 197.027344 404.289063 197.898438 C 402.761719 198.765625 401.726563 199.390625 401.1875 199.769531 L 416.683594 199.769531 L 416.683594 207.824219 "/>
<path style=" stroke:none;fill-rule:nonzero;fill:rgb(9.799194%,62.399292%,77.999878%);fill-opacity:1;" d="M 327.828125 299.800781 C 252.496094 299.800781 191.429688 238.726563 191.429688 163.398438 C 191.429688 88.0625 252.496094 26.996094 327.828125 26.996094 C 403.160156 26.996094 464.226563 88.0625 464.226563 163.398438 C 464.226563 238.726563 403.160156 299.800781 327.828125 299.800781 M 327.828125 -0.00390625 C 237.585938 -0.00390625 164.429688 73.152344 164.429688 163.398438 C 164.429688 253.644531 237.585938 326.800781 327.828125 326.800781 C 418.070313 326.800781 491.230469 253.644531 491.230469 163.398438 C 491.230469 73.152344 418.070313 -0.00390625 327.828125 -0.00390625 "/>
<path style=" stroke:none;fill-rule:nonzero;fill:rgb(37.298584%,27.099609%,53.69873%);fill-opacity:1;" d="M 333.53125 275.3125 C 333.53125 275.3125 248.464844 279.363281 240.363281 176.398438 C 240.363281 176.398438 234.285156 109.5625 253.863281 110.238281 C 253.863281 110.238281 262.304688 108.546875 259.941406 127.117188 C 259.941406 127.117188 257.578125 151.757813 258.59375 160.195313 C 258.59375 160.195313 258.503906 163.992188 262.050781 163.992188 C 265.214844 163.992188 265.089844 160.449219 265.089844 160.449219 L 265.847656 130.320313 C 265.847656 130.320313 265.089844 81.207031 285.59375 81.207031 C 285.59375 81.207031 295.214844 81.207031 291.164063 104.246094 C 291.164063 104.246094 287.367188 130.070313 288.378906 134.878906 C 288.378906 134.878906 288.128906 138.425781 291.671875 138.425781 C 295.214844 138.425781 294.960938 133.867188 294.960938 133.867188 C 294.960938 133.867188 298 80.445313 316.226563 60.699219 C 316.226563 60.699219 326.164063 46.746094 336.484375 53.355469 C 344.585938 58.546875 338.253906 70.570313 338.253906 70.570313 C 338.253906 70.570313 327.242188 91.078125 322.558594 115.386719 C 322.558594 115.386719 321.417969 119.5625 324.078125 121.082031 C 327.429688 123 331.421875 120.699219 331.421875 120.699219 C 331.421875 120.699219 349.394531 110.574219 372.433594 122.222656 C 395.472656 133.867188 395.976563 150.070313 396.359375 155.894531 C 396.359375 155.894531 397.121094 165.894531 390.15625 167.664063 C 382.507813 169.613281 380.789063 160.703125 380.789063 160.703125 C 380.789063 160.703125 374.96875 138.539063 350.15625 138.425781 C 323.320313 138.296875 317.242188 160.195313 317.242188 160.195313 C 317.242188 160.195313 303.488281 207.285156 322.730469 234.628906 C 322.730469 234.628906 329.816406 245.941406 350.914063 245.265625 C 375.460938 244.480469 381.296875 221.210938 381.296875 221.210938 C 381.296875 221.210938 382.394531 210.917969 392.269531 212.183594 C 402.140625 213.449219 399.527344 229.0625 399.527344 229.0625 C 399.527344 229.0625 392.355469 277.761719 333.53125 275.3125 "/>
<path style=" stroke:none;fill-rule:nonzero;fill:rgb(9.799194%,62.399292%,77.999878%);fill-opacity:1;" d="M 333.597656 190.953125 C 333.597656 201.019531 334.796875 209.730469 337.203125 217.101563 C 339.605469 224.46875 343.699219 228.148438 349.484375 228.148438 C 354.890625 228.148438 358.90625 224.796875 361.539063 218.089844 C 364.167969 211.378906 365.484375 202.339844 365.484375 190.953125 C 365.484375 181.132813 364.136719 172.71875 361.429688 165.707031 C 358.722656 158.699219 354.664063 155.195313 349.261719 155.195313 C 343.773438 155.195313 339.792969 158.761719 337.3125 165.890625 C 334.832031 173.015625 333.597656 181.371094 333.597656 190.953125 "/>
</g>
</svg>
